<svg width="28" height="22" viewBox="0 0 28 22" fill="none" xmlns="http://www.w3.org/2000/svg">
<path d="M9 16L23.75 1.25C24.2083 0.791666 24.7917 0.5625 25.5 0.5625C26.2083 0.5625 26.7917 0.791666 27.25 1.25C27.7083 1.70833 27.9375 2.29167 27.9375 3C27.9375 3.70833 27.7083 4.29167 27.25 4.75L10.75 21.25C10.25 21.75 9.66667 22 9 22C8.33333 22 7.75 21.75 7.25 21.25L0.749999 14.75C0.291666 14.2917 0.0625 13.7083 0.0625 13C0.0625 12.2917 0.291666 11.7083 0.749999 11.25C1.20833 10.7917 1.79167 10.5625 2.5 10.5625C3.20833 10.5625 3.79167 10.7917 4.25 11.25L9 16Z" fill="#C00812"/>
</svg>
