<svg width="34" height="34" viewBox="0 0 34 34" fill="none" xmlns="http://www.w3.org/2000/svg">
<path d="M10.0002 0.333252H24.0002C29.3335 0.333252 33.6668 4.66659 33.6668 9.99992V23.9999C33.6668 26.5637 32.6484 29.0224 30.8355 30.8353C29.0227 32.6481 26.5639 33.6666 24.0002 33.6666H10.0002C4.66683 33.6666 0.333496 29.3333 0.333496 23.9999V9.99992C0.333496 7.43616 1.35195 4.9774 3.1648 3.16455C4.97765 1.3517 7.4364 0.333252 10.0002 0.333252ZM9.66683 3.66659C8.07553 3.66659 6.54941 4.29873 5.42419 5.42394C4.29897 6.54916 3.66683 8.07529 3.66683 9.66658V24.3333C3.66683 27.6499 6.35016 30.3333 9.66683 30.3333H24.3335C25.9248 30.3333 27.4509 29.7011 28.5761 28.5759C29.7014 27.4507 30.3335 25.9245 30.3335 24.3333V9.66658C30.3335 6.34992 27.6502 3.66659 24.3335 3.66659H9.66683ZM25.7502 6.16658C26.3027 6.16658 26.8326 6.38608 27.2233 6.77678C27.614 7.16748 27.8335 7.69738 27.8335 8.24992C27.8335 8.80245 27.614 9.33236 27.2233 9.72306C26.8326 10.1138 26.3027 10.3333 25.7502 10.3333C25.1976 10.3333 24.6677 10.1138 24.277 9.72306C23.8863 9.33236 23.6668 8.80245 23.6668 8.24992C23.6668 7.69738 23.8863 7.16748 24.277 6.77678C24.6677 6.38608 25.1976 6.16658 25.7502 6.16658ZM17.0002 8.66658C19.2103 8.66658 21.3299 9.54456 22.8927 11.1074C24.4555 12.6702 25.3335 14.7898 25.3335 16.9999C25.3335 19.2101 24.4555 21.3297 22.8927 22.8925C21.3299 24.4553 19.2103 25.3333 17.0002 25.3333C14.79 25.3333 12.6704 24.4553 11.1076 22.8925C9.5448 21.3297 8.66683 19.2101 8.66683 16.9999C8.66683 14.7898 9.5448 12.6702 11.1076 11.1074C12.6704 9.54456 14.79 8.66658 17.0002 8.66658ZM17.0002 11.9999C15.6741 11.9999 14.4023 12.5267 13.4646 13.4644C12.5269 14.4021 12.0002 15.6738 12.0002 16.9999C12.0002 18.326 12.5269 19.5978 13.4646 20.5355C14.4023 21.4731 15.6741 21.9999 17.0002 21.9999C18.3262 21.9999 19.598 21.4731 20.5357 20.5355C21.4734 19.5978 22.0002 18.326 22.0002 16.9999C22.0002 15.6738 21.4734 14.4021 20.5357 13.4644C19.598 12.5267 18.3262 11.9999 17.0002 11.9999Z" fill="white" fill-opacity="0.8"/>
</svg>
