<svg width="28" height="34" viewBox="0 0 28 34" fill="none" xmlns="http://www.w3.org/2000/svg">
<path d="M13.9998 16.9999C14.9165 16.9999 15.7015 16.6733 16.3548 16.0199C17.0071 15.3677 17.3332 14.5833 17.3332 13.6666C17.3332 12.7499 17.0071 11.9649 16.3548 11.3116C15.7015 10.6594 14.9165 10.3333 13.9998 10.3333C13.0832 10.3333 12.2987 10.6594 11.6465 11.3116C10.9932 11.9649 10.6665 12.7499 10.6665 13.6666C10.6665 14.5833 10.9932 15.3677 11.6465 16.0199C12.2987 16.6733 13.0832 16.9999 13.9998 16.9999ZM13.9998 33.6666C9.52761 29.861 6.18761 26.326 3.97984 23.0616C1.77095 19.7983 0.666504 16.7777 0.666504 13.9999C0.666504 9.83325 2.00706 6.51381 4.68817 4.04158C7.36817 1.56936 10.4721 0.333252 13.9998 0.333252C17.5276 0.333252 20.6315 1.56936 23.3115 4.04158C25.9926 6.51381 27.3332 9.83325 27.3332 13.9999C27.3332 16.7777 26.2293 19.7983 24.0215 23.0616C21.8126 26.326 18.4721 29.861 13.9998 33.6666Z" fill="white" fill-opacity="0.8"/>
</svg>
