<svg width="64" height="71" viewBox="0 0 64 71" fill="none" xmlns="http://www.w3.org/2000/svg">
<path d="M6.31579 70.9056C4.57895 70.9056 3.09263 70.1754 1.85684 68.715C0.618948 67.2521 0 65.4944 0 63.4418V22.3912C0 20.3387 0.618948 18.5822 1.85684 17.1218C3.09263 15.6589 4.57895 14.9275 6.31579 14.9275H18.9474V7.46374C18.9474 5.41121 19.5663 3.6535 20.8042 2.19061C22.04 0.730202 23.5263 0 25.2632 0H37.8947C39.6316 0 41.1189 0.730202 42.3568 2.19061C43.5926 3.6535 44.2105 5.41121 44.2105 7.46374V14.9275H56.8421C58.5789 14.9275 60.0663 15.6589 61.3042 17.1218C62.54 18.5822 63.1579 20.3387 63.1579 22.3912V63.4418C63.1579 65.4944 62.54 67.2521 61.3042 68.715C60.0663 70.1754 58.5789 70.9056 56.8421 70.9056H6.31579ZM25.2632 14.9275H37.8947V7.46374H25.2632V14.9275Z" fill="#C00812"/>
</svg>
