<svg width="60" height="60" viewBox="0 0 60 60" fill="none" xmlns="http://www.w3.org/2000/svg">
<g clip-path="url(#clip0_125_95)">
<path fill-rule="evenodd" clip-rule="evenodd" d="M18.8175 6.64251C21.9423 5.83741 25.2289 5.91183 28.314 6.85756C31.3992 7.80328 34.1628 9.58349 36.2996 12.0015C38.4364 14.4195 39.8632 17.3811 40.4222 20.5592C40.9813 23.7372 40.6509 27.008 39.4675 30.01L50.965 39.7425C51.837 40.4794 52.5466 41.3893 53.0488 42.4145C53.551 43.4398 53.835 44.5581 53.8827 45.6988C53.9305 46.8394 53.7409 47.9776 53.3261 49.0412C52.9113 50.1049 52.2803 51.0708 51.4729 51.878C50.6656 52.6852 49.6995 53.316 48.6357 53.7306C47.572 54.1452 46.4338 54.3345 45.2932 54.2865C44.1525 54.2385 43.0343 53.9543 42.0091 53.4518C40.984 52.9494 40.0742 52.2397 39.3375 51.3675L29.61 39.875C26.6076 41.0603 23.3359 41.3922 20.1566 40.834C16.9774 40.2759 14.0144 38.8494 11.5952 36.7123C9.17613 34.5752 7.39512 31.8107 6.44914 28.7245C5.50317 25.6383 5.42906 22.3507 6.23503 19.225C6.34867 18.7858 6.57854 18.3854 6.90046 18.0657C7.22238 17.7461 7.62446 17.5191 8.06445 17.4086C8.50443 17.2981 8.96606 17.3082 9.40081 17.4377C9.83555 17.5673 10.2274 17.8116 10.535 18.145L18.1475 26.4125L23.89 24.3L26.0075 18.55L17.735 10.95C17.3997 10.6424 17.1537 10.2499 17.023 9.81405C16.8924 9.37816 16.882 8.91506 16.9929 8.47373C17.1038 8.0324 17.3319 7.62925 17.6531 7.3069C17.9743 6.98456 18.3766 6.755 18.8175 6.64251Z" fill="#C00812"/>
</g>
<defs>
<clipPath id="clip0_125_95">
<rect width="60" height="60" fill="white"/>
</clipPath>
</defs>
</svg>
