<svg width="34" height="34" viewBox="0 0 34 34" fill="none" xmlns="http://www.w3.org/2000/svg">
<path d="M28.3333 5.18335C26.8053 3.63989 24.9853 2.41613 22.9794 1.58344C20.9735 0.750742 18.8219 0.325785 16.65 0.333351C7.55 0.333351 0.133334 7.75002 0.133334 16.85C0.133334 19.7667 0.9 22.6 2.33333 25.1L0 33.6667L8.75 31.3667C11.1667 32.6833 13.8833 33.3834 16.65 33.3834C25.75 33.3834 33.1667 25.9667 33.1667 16.8667C33.1667 12.45 31.45 8.30002 28.3333 5.18335ZM16.65 30.5833C14.1833 30.5833 11.7667 29.9167 9.65 28.6667L9.15 28.3667L3.95 29.7333L5.33333 24.6667L5 24.15C3.62958 21.9616 2.9019 19.4321 2.9 16.85C2.9 9.28335 9.06667 3.11668 16.6333 3.11668C20.3 3.11668 23.75 4.55002 26.3333 7.15002C27.6125 8.42329 28.6262 9.93779 29.3157 11.6057C30.0051 13.2737 30.3567 15.0619 30.35 16.8667C30.3833 24.4333 24.2167 30.5833 16.65 30.5833ZM24.1833 20.3167C23.7667 20.1167 21.7333 19.1167 21.3667 18.9667C20.9833 18.8334 20.7167 18.7667 20.4333 19.1667C20.15 19.5834 19.3667 20.5167 19.1333 20.7833C18.9 21.0667 18.65 21.1 18.2333 20.8834C17.8167 20.6833 16.4833 20.2334 14.9167 18.8334C13.6833 17.7334 12.8667 16.3834 12.6167 15.9667C12.3833 15.55 12.5833 15.3334 12.8 15.1167C12.9833 14.9333 13.2167 14.6333 13.4167 14.4C13.6167 14.1667 13.7 13.9833 13.8333 13.7167C13.9667 13.4333 13.9 13.2 13.8 13C13.7 12.8 12.8667 10.7667 12.5333 9.93335C12.2 9.13335 11.85 9.23335 11.6 9.21668H10.8C10.5167 9.21668 10.0833 9.31668 9.7 9.73335C9.33333 10.15 8.26667 11.15 8.26667 13.1834C8.26667 15.2167 9.75 17.1834 9.95 17.45C10.15 17.7334 12.8667 21.9 17 23.6833C17.9833 24.1167 18.75 24.3667 19.35 24.55C20.3333 24.8667 21.2333 24.8167 21.95 24.7167C22.75 24.6 24.4 23.7167 24.7333 22.75C25.0833 21.7833 25.0833 20.9667 24.9667 20.7833C24.85 20.6 24.6 20.5167 24.1833 20.3167Z" fill="white" fill-opacity="0.8"/>
</svg>
